<?xml version="1.0" encoding="UTF-8" standalone="no"?>
<!-- Generator: Adobe Illustrator 25.2.1, SVG Export Plug-In . SVG Version: 6.00 Build 0)  -->

<svg version="1.1"
	id="Capa_1"
	x="0px"
	y="0px"
	viewBox="0 0 1024 1024"
	xml:space="preserve"
	width="1024"
	height="1024"
	xmlns="http://www.w3.org/2000/svg"><defs
   id="defs69" />
<style
   type="text/css"
   id="style2">
	.st0{fill-rule:evenodd;clip-rule:evenodd;fill:#472423;}
	.st1{fill-rule:evenodd;clip-rule:evenodd;fill:#FFED00;}
	.st2{fill-rule:evenodd;clip-rule:evenodd;fill:#A2DAF8;}
	.st3{fill-rule:evenodd;clip-rule:evenodd;fill:#E30613;}
	.st4{fill-rule:evenodd;clip-rule:evenodd;fill:#009FE3;}
	.st5{fill-rule:evenodd;clip-rule:evenodd;fill:#009640;}
	.st6{fill-rule:evenodd;clip-rule:evenodd;}
	.st7{fill-rule:evenodd;clip-rule:evenodd;fill:#77512C;}
	.st8{fill-rule:evenodd;clip-rule:evenodd;fill:#C7C7C7;}
	.st9{fill-rule:evenodd;clip-rule:evenodd;fill:#DADADA;}
	.st10{fill-rule:evenodd;clip-rule:evenodd;fill:#FFFFFF;}
	.st11{fill:#FFFFFF;}
</style>
<g
   id="g64"
   transform="matrix(1.1767725,0,0,1.1767725,146.80042,46.009858)">
	
	
	
	<path
   class="st3"
   d="m 529.89,275.32 1.71,174.17 c -15.14,39.81 -36.49,76.64 -61.71,111.85 l -2.81,-285.59 z m -125.61,0.87 3.56,362.02 c -20.01,22.64 -40.96,45.01 -62.15,67.55 l -4.22,-429.13 z m -125.62,0.87 4.28,435.77 C 261.99,691.32 240.47,669.28 219.48,646.61 L 215.85,277.5 Z m -125.61,0.87 2.89,294.46 C 130.53,539.48 108.32,505.2 92.12,469.34 L 90.24,278.37 Z"
   id="path10"
   style="display:inline;fill:#000000;fill-opacity:1" />
	
	
	
	
	
	
	
	
	
	
	
	
	
	<g
   id="g1265"><path
     class="st5"
     d="m 195.34,190.28 c 12.77,-6.18 23.72,-15.61 26.97,-30.78 8.14,13.77 19.49,23.84 32.91,29.65 l 0.04,3.67 c -4.02,0.45 -8.03,0.9 -12.05,1.35 3.62,4.73 7.69,8.9 12.19,12.52 l 0.18,18.72 c -3.6,0.3 -7.6,0.05 -12.07,-0.84 3.69,5.48 7.82,9.42 12.19,12.56 l 0.27,27.07 -82.72,0.57 0.37,-0.17 1.16,-0.54 1.16,-0.59 1.14,-0.62 1.11,-0.65 1.09,-0.69 1.06,-0.72 1.03,-0.75 1,-0.78 0.98,-0.81 0.95,-0.84 0.92,-0.87 0.89,-0.89 0.87,-0.92 0.84,-0.95 0.81,-0.98 0.77,-0.99 0.4,-0.53 0.38,-0.52 0.37,-0.53 0.36,-0.54 0.36,-0.54 0.35,-0.55 0.34,-0.56 0.33,-0.56 0.33,-0.57 0.32,-0.58 0.31,-0.58 0.3,-0.59 0.3,-0.59 0.29,-0.6 0.28,-0.61 0.27,-0.61 0.27,-0.62 0.26,-0.63 0.26,-0.63 0.25,-0.64 0.24,-0.64 0.23,-0.65 0.23,-0.66 0.22,-0.66 0.21,-0.67 0.21,-0.68 0.2,-0.69 0.19,-0.69 0.19,-0.69 0.18,-0.7 0.18,-0.71 1.08,-4.61 -13.26,-3.89 c 7.27,-2.3 12.7,-6.12 13.88,-13.45 -6.86,0.51 -13.72,1.02 -20.58,1.52 16.14,-6.1 25.68,-13.99 28.6,-23.68 -3.99,0.82 -7.97,1.65 -11.96,2.48 l -0.05,-0.13 z"
     id="path30"
     style="fill:#000000;fill-opacity:1" /><path
     class="st5"
     d="m 321.22,236.52 c 4.48,-1.85 8.96,-3.69 13.43,-5.54 -8.67,-0.21 -15.03,-3.38 -21.05,-6.98 9.52,-1.14 19.37,-1.86 23.39,-9.8 -5.34,-1.36 -10.68,-2.72 -16.03,-4.08 19.78,-1.81 46.27,-8.38 52.52,-44.34 3.55,5.84 8.76,10.27 17.6,11.61 1.31,-2.66 0.61,-5.31 1.92,-7.97 3.99,-0.59 8.63,-2.85 9.93,-6.77 -2.33,0.16 -4.66,0.31 -6.99,0.47 7.78,-5.49 15.37,-12.09 21.72,-26.54 4.53,14.16 17.79,20.88 34.22,24.9 -3.99,0.87 -7.98,1.73 -11.96,2.6 2.86,3.05 6.38,4.98 10.55,5.79 -1.8,3.5 -6.28,5.35 -13.43,5.54 3.51,3.73 7.7,6.01 12.21,7.59 l -35.83,80.1 -39.8,0.27 -0.25,-25.3 -12.44,0.09 -37.56,0.26 c -0.72,-0.63 -1.43,-1.26 -2.15,-1.9"
     id="path32"
     style="fill:#000000;fill-opacity:1" /><path
     class="st5"
     d="m 64.01,183.54 c 4.68,-1.93 8.8,-5.1 11.6,-11.13 4.57,6.08 10.59,9.67 17.46,11.82 l -0.59,1.02 -0.6,1.1 -0.57,1.12 -0.54,1.14 -0.51,1.16 -0.48,1.18 -0.46,1.2 -0.43,1.22 -0.4,1.24 -0.37,1.26 -0.34,1.28 -0.32,1.3 -0.29,1.32 -0.26,1.34 -0.23,1.35 -0.21,1.37 -0.18,1.39 -0.16,1.41 -0.13,1.43 -0.1,1.45 -0.08,1.47 -0.05,1.49 -0.02,1.51 v 1.52 l 0.02,1.15 0.03,1.14 0.05,1.13 0.06,1.11 0.08,1.1 0.09,1.09 0.11,1.08 0.12,1.07 0.14,1.06 0.15,1.05 0.17,1.03 0.18,1.02 0.2,1.01 0.21,1 0.23,0.99 0.24,0.98 0.26,0.97 0.27,0.96 0.29,0.94 0.3,0.93 0.32,0.92 0.33,0.91 0.35,0.9 0.37,0.89 0.38,0.88 0.4,0.86 0.42,0.85 0.43,0.84 0.45,0.83 0.46,0.81 0.48,0.8 0.49,0.78 0.5,0.76 0.5,0.74 0.5,0.72 0.51,0.71 0.52,0.7 0.52,0.69 0.53,0.68 0.54,0.66 0.55,0.65 0.55,0.64 0.56,0.63 0.57,0.61 0.58,0.6 0.58,0.58 0.59,0.57 0.6,0.56 0.61,0.55 0.61,0.53 0.62,0.52 0.63,0.51 0.64,0.49 0.65,0.48 0.65,0.47 0.66,0.45 0.67,0.44 0.68,0.42 0.69,0.41 0.69,0.39 0.7,0.38 0.71,0.37 0.72,0.35 0.74,0.34 0.75,0.32 0.74,0.3 0.75,0.29 0.06,0.02 -51.39,0.35 z"
     id="path34"
     style="fill:#000000;fill-opacity:1" /></g>
	
	
	
	<g
   id="g923"><polygon
     class="st0"
     points="141.65,99.12 147.36,108.08 136.34,119.24 117.71,116.03 114.26,118.37 113.81,115.12 "
     id="polygon44"
     style="fill:#000000;fill-opacity:1" /><path
     class="st8"
     d="M 49.58,126.87 C 66.24,103.68 90.57,84.1 116.2,67.69 c 22.04,-14.11 49.43,-22.03 76.29,-27.83 8.36,-1.81 29.27,-3.09 47.48,-2.34 l -14.93,21.4 c -14.75,-1.02 -35.07,2.22 -75.49,31.05 -3.44,2.46 -5.53,5.93 -7.86,9.24 l -0.05,-0.08 -25.67,14.75 c -14.7,1.56 -29.76,10.93 -41.81,20.92 z"
     id="path46"
     style="fill:#000000;fill-opacity:1" /></g>
	<g
   id="g928"
   style="display:inline"><path
     class="st0"
     d="m 436.52,89.93 c 2.22,-6.99 5.94,-14.16 2.71,-20.52 -5.86,-11.57 -16.34,-20.04 -30.73,-28.08 41.54,-10.84 59.13,12.48 60.02,36.27 -0.04,0.06 -0.08,0.12 -0.12,0.19 -0.01,0.01 -0.01,0.02 -0.02,0.03 -0.04,0.06 -0.08,0.12 -0.12,0.18 -0.02,0.03 -0.04,0.06 -0.06,0.1 -0.1,0.16 -0.2,0.32 -0.29,0.48 -0.01,0.02 -0.03,0.05 -0.04,0.07 -0.1,0.18 -0.2,0.35 -0.3,0.53 0,0.01 -0.01,0.01 -0.01,0.02 -0.1,0.19 -0.2,0.37 -0.3,0.56 0,0 0,0.01 0,0.01 -0.19,0.38 -0.38,0.77 -0.55,1.16 0,0.01 -0.01,0.01 -0.01,0.02 -0.17,0.39 -0.32,0.77 -0.47,1.17 0,0 0,0 0,0 -0.04,0.1 -0.07,0.19 -0.11,0.29 0,0 0,0.01 0,0.01 -0.38,1.08 -0.69,2.19 -0.95,3.31 -0.01,0.03 -0.01,0.05 -0.02,0.08 0,0.02 -0.01,0.04 -0.01,0.05 -0.02,0.09 -0.04,0.17 -0.06,0.26 -0.02,0.07 -0.03,0.15 -0.05,0.22 -0.01,0.03 -0.01,0.06 -0.02,0.09 0,0.01 0,0.02 -0.01,0.03 -0.02,0.09 -0.04,0.19 -0.06,0.28 -0.01,0.07 -0.03,0.14 -0.04,0.21 -0.01,0.04 -0.01,0.07 -0.02,0.11 -0.08,0.42 -0.15,0.84 -0.22,1.26 0,0 0,0.01 0,0.01 -0.06,0.37 -0.11,0.74 -0.16,1.11 -0.01,0.05 -0.01,0.11 -0.02,0.16 -0.05,0.36 -0.09,0.73 -0.13,1.09 -0.01,0.06 -0.01,0.13 -0.02,0.19 0,0.01 0,0.02 0,0.02 -0.04,0.35 -0.07,0.7 -0.11,1.05 -0.01,0.07 -0.01,0.14 -0.02,0.21 0,0.03 -0.01,0.07 -0.01,0.1 -0.01,0.07 -0.01,0.15 -0.02,0.22 0,0.03 -0.01,0.06 -0.01,0.09 -0.01,0.08 -0.01,0.15 -0.02,0.23 0,0.03 -0.01,0.06 -0.01,0.09 -0.01,0.08 -0.01,0.16 -0.02,0.23 0,0.03 0,0.05 -0.01,0.08 -0.01,0.08 -0.01,0.16 -0.02,0.24 0,0.02 0,0.05 -0.01,0.07 -0.01,0.08 -0.01,0.16 -0.02,0.25 0,0.02 0,0.04 -0.01,0.07 -0.01,0.08 -0.01,0.17 -0.02,0.25 0,0.02 0,0.04 0,0.06 -0.01,0.09 -0.01,0.17 -0.02,0.26 0,0.02 0,0.04 0,0.05 -0.01,0.09 -0.01,0.18 -0.02,0.26 0,0.02 0,0.03 0,0.05 -0.01,0.09 -0.01,0.18 -0.02,0.27 0,0.01 0,0.03 0,0.04 -0.01,0.09 -0.01,0.19 -0.02,0.28 0,0.01 0,0.02 0,0.03 -0.01,0.1 -0.01,0.19 -0.02,0.28 0,0.01 0,0.02 0,0.03 -0.01,0.1 -0.01,0.19 -0.02,0.29 0,0.01 0,0.01 0,0.02 -0.01,0.1 -0.02,0.21 -0.02,0.31 -0.01,0.1 -0.02,0.2 -0.02,0.3 0,0 0,0 0,0.01 -0.01,0.1 -0.01,0.21 -0.02,0.31 -0.03,0.33 -0.05,0.66 -0.06,0.99 l -4.67,-4.23 -16.74,3.49 z"
     id="path4"
     style="fill:#000000;fill-opacity:1" /><path
     class="st0"
     d="m 138.86,600.69 c -16.45,30.27 -47.98,60.46 -62.84,80.24 -4.37,5.77 4.58,13.65 10.17,18.63 4.5,4.03 13.14,10.24 18.14,6.65 9.86,-7.08 18.64,-15.63 26.71,-24.87 1.18,-3.25 3.44,-6.14 7.05,-8.44 10.3,-12.84 19.54,-26.5 28.63,-39.13 l -7.58,-8.7 -10.24,-12.11 z"
     id="path40"
     style="fill:#000000;fill-opacity:1" /><path
     class="st1"
     d="m 136.81,615.05 c -8.02,21.35 -32.7,44.35 -44.4,57.76 -3.43,3.93 3.09,10.09 8.16,6.03 19.02,-15.24 35.1,-37.95 44.66,-54.18 z m 12.08,12.28 c -8.02,21.35 -32.7,44.35 -44.4,57.76 -3.43,3.93 3.09,10.09 8.16,6.03 19.02,-15.24 35.1,-37.95 44.66,-54.18 z"
     id="path42"
     style="fill:#000000;fill-opacity:1" /><path
     class="st1"
     d="m 436.2,50.87 c 18.71,18.48 19.22,19.55 17.07,42.87 l -8.55,-0.86 c 3.33,-18.36 2.03,-23.33 -8.52,-42.01"
     id="path48"
     style="fill:#000000;fill-opacity:1" /></g>
	<path
   class="st6"
   d="m 158.2,223.87 25.88,7.59 c -1.66,7.22 -4.33,13.26 -8.01,18.12 -3.68,4.86 -8.28,8.54 -13.8,11.04 -5.48,2.5 -12.49,3.78 -21.02,3.84 -10.36,0.07 -18.84,-1.36 -25.46,-4.29 -6.57,-2.97 -12.28,-8.22 -17.12,-15.74 -4.84,-7.52 -7.32,-17.17 -7.43,-28.95 -0.15,-15.71 3.91,-27.8 12.19,-36.27 8.32,-8.52 20.15,-12.83 35.49,-12.93 12,-0.08 21.45,2.27 28.34,7.05 6.94,4.79 12.12,12.17 15.56,22.16 l -25.94,5.94 c -0.94,-2.88 -1.91,-4.99 -2.92,-6.32 -1.67,-2.23 -3.7,-3.94 -6.1,-5.14 -2.4,-1.19 -5.07,-1.78 -8.01,-1.76 -6.67,0.05 -11.76,2.76 -15.26,8.13 -2.65,3.99 -3.93,10.24 -3.85,18.74 0.1,10.53 1.78,17.75 5.02,21.65 3.24,3.86 7.77,5.77 13.58,5.73 5.63,-0.04 9.86,-1.64 12.69,-4.81 2.87,-3.18 4.92,-7.77 6.17,-13.78 m 329.25,4.5 -11.79,-30.54 -11.11,30.7 z m 6.91,18.37 -36.58,0.25 -4.9,14.1 -32.82,0.23 38.23,-85.46 35.02,-0.24 39.9,84.92 -33.6,0.23 z m -234.35,-128.11 92.21,-0.64 0.18,18.56 -59.58,0.41 0.23,22.98 44.66,-0.31 0.18,18.55 -44.66,0.31 0.64,64.72 61.64,-0.43 0.19,19.75 -94.26,0.65 z m 296.58,156.51 -492.47,3.4 0.08,69.55 C 64.38,503.14 203.49,629.74 311.46,742.26 424.92,620.25 543.01,509.2 555.01,344.7 c 1.72,-23.67 1.97,-46.69 1.58,-69.56 z m -76.65,-51.32 -4.11,-10.65 -3.87,10.7 z m 10.41,27.54 -17.77,0.12 -3.9,11.23 25.85,-0.18 z m -235.86,-137.28 12.44,-0.09 90.73,-0.63 12.44,-0.09 0.27,27.75 -12.44,0.09 -47.14,0.33 0.14,13.79 32.23,-0.22 12.44,-0.09 0.27,27.74 -12.44,0.09 -32.23,0.22 0.55,55.53 49.2,-0.34 12.44,-0.09 0.25,25.3 39.8,-0.27 41.06,-91.8 10.67,-0.07 31.87,-0.22 10.67,-0.07 42.86,91.22 5.74,-0.04 c -0.88,-33.07 -2.76,-66.02 -3.09,-100.37 l -25.87,9.02 -36.81,-30.35 -16.97,6.92 -25.38,-22.95 -20.24,4.22 -33.68,-41.94 -16.16,6.91 -25.43,-28.39 -16.96,8.28 -33.52,-26.99 -21.68,23.28 -15.55,-13.5 -22.4,32.12 -20.24,4.22 -28.03,36.92 -19.53,-5.99 -25.71,26.03 -22.76,-3.92 -35.46,24.05 -26.86,-8.66 0.12,104.47 51.39,-0.35 -0.06,-0.02 -0.75,-0.29 -0.74,-0.3 -0.75,-0.32 -0.74,-0.34 -0.72,-0.35 -0.71,-0.37 -0.7,-0.38 -0.69,-0.39 -0.69,-0.41 -0.68,-0.42 -0.67,-0.44 -0.66,-0.45 -0.65,-0.47 -0.65,-0.48 -0.63,-0.52 -0.63,-0.51 -0.62,-0.52 -0.61,-0.53 -0.61,-0.55 -0.6,-0.56 -0.59,-0.57 -0.58,-0.58 -0.58,-0.6 -0.57,-0.61 -0.56,-0.63 -0.55,-0.64 -0.55,-0.65 -0.54,-0.66 -0.53,-0.68 -0.52,-0.69 -0.52,-0.7 -0.51,-0.71 -0.5,-0.72 -0.5,-0.74 -0.5,-0.76 -0.49,-0.78 -0.48,-0.8 -0.46,-0.81 -0.45,-0.83 -0.43,-0.84 -0.42,-0.85 -0.4,-0.86 -0.38,-0.88 -0.37,-0.89 -0.35,-0.9 -0.33,-0.91 -0.32,-0.92 -0.3,-0.93 -0.29,-0.94 -0.27,-0.96 -0.26,-0.97 -0.24,-0.98 -0.23,-0.99 -0.21,-1 -0.2,-1.01 -0.18,-1.02 -0.17,-1.03 -0.15,-1.05 -0.14,-1.06 -0.12,-1.07 -0.11,-1.08 -0.09,-1.09 -0.08,-1.1 -0.06,-1.11 -0.05,-1.13 -0.03,-1.14 -0.02,-1.15 v -1.52 l 0.02,-1.51 0.05,-1.49 0.08,-1.47 0.1,-1.45 0.13,-1.43 0.16,-1.41 0.18,-1.39 0.21,-1.37 0.23,-1.35 0.26,-1.34 0.29,-1.32 0.32,-1.3 0.34,-1.28 0.37,-1.26 0.4,-1.24 0.43,-1.22 0.46,-1.2 0.48,-1.18 0.51,-1.16 0.54,-1.14 0.57,-1.12 0.6,-1.1 0.63,-1.08 0.66,-1.06 0.69,-1.04 0.72,-1.02 0.74,-1 0.77,-0.97 0.8,-0.95 0.83,-0.93 0.86,-0.91 0.89,-0.89 0.92,-0.86 0.94,-0.83 0.97,-0.81 0.99,-0.78 1.01,-0.75 1.04,-0.73 1.07,-0.7 1.09,-0.67 1.11,-0.64 1.14,-0.61 1.16,-0.59 1.18,-0.56 1.2,-0.53 1.22,-0.5 1.25,-0.47 1.27,-0.44 1.28,-0.41 1.31,-0.39 1.33,-0.36 1.35,-0.33 1.36,-0.3 1.38,-0.27 1.4,-0.24 1.42,-0.22 1.44,-0.19 1.45,-0.16 1.47,-0.13 1.49,-0.1 1.51,-0.08 1.52,-0.05 1.54,-0.02 h 1.21 l 1.19,0.01 1.17,0.03 0.86,0.03 1.23,-0.06 1.52,-0.05 1.54,-0.02 h 1.21 l 1.19,0.01 1.17,0.03 1.16,0.05 1.15,0.06 1.14,0.08 1.13,0.09 1.11,0.11 1.1,0.13 1.09,0.14 1.08,0.16 1.06,0.17 1.05,0.19 1.03,0.21 1.02,0.22 1.01,0.24 1,0.26 0.98,0.28 0.97,0.29 0.95,0.31 0.94,0.33 0.93,0.34 0.91,0.36 0.9,0.38 0.88,0.4 0.87,0.41 0.85,0.43 0.83,0.45 0.82,0.47 0.8,0.48 0.79,0.5 0.76,0.51 0.75,0.53 0.73,0.55 0.72,0.56 0.71,0.58 0.69,0.59 0.68,0.61 0.67,0.63 0.65,0.64 0.64,0.66 0.63,0.67 0.61,0.69 0.6,0.7 0.58,0.71 0.57,0.73 0.56,0.75 0.54,0.76 0.53,0.78 0.52,0.79 0.51,0.8 0.49,0.82 0.48,0.83 0.47,0.85 0.45,0.86 0.44,0.87 0.43,0.89 0.42,0.9 0.41,0.92 0.39,0.93 0.38,0.95 0.37,0.96 0.36,0.97 1.92,5.45 -36.6,8.38 -0.6,-1.8 -8.13,1.86 -1.62,-4.91 -0.16,-0.47 -0.16,-0.44 -0.16,-0.42 -0.16,-0.4 -0.16,-0.38 -0.15,-0.36 -0.15,-0.33 -0.15,-0.31 -0.14,-0.29 -0.14,-0.26 -0.13,-0.24 -0.12,-0.21 -0.12,-0.19 -0.11,-0.16 -0.11,-0.15 -0.24,-0.32 -0.24,-0.3 -0.25,-0.28 -0.25,-0.27 -0.25,-0.26 -0.26,-0.25 -0.26,-0.24 -0.26,-0.23 -0.27,-0.22 -0.27,-0.21 -0.27,-0.2 -0.28,-0.19 -0.28,-0.18 -0.28,-0.17 -0.29,-0.16 -0.29,-0.15 -0.29,-0.14 -0.29,-0.13 -0.29,-0.12 -0.13,-0.05 -0.1,0.04 -0.65,0.27 -0.62,0.3 -0.6,0.35 -0.6,0.4 -0.59,0.45 -0.58,0.51 -0.57,0.57 -0.56,0.61 -0.55,0.7 -0.56,0.8 -0.17,0.26 -0.17,0.29 -0.17,0.3 -0.16,0.31 -0.16,0.33 -0.16,0.35 -0.16,0.36 -0.15,0.38 -0.15,0.39 -0.14,0.41 -0.14,0.43 -0.13,0.45 -0.13,0.46 -0.12,0.48 -0.12,0.5 -0.11,0.51 -0.1,0.52 -0.1,0.54 -0.09,0.56 -0.08,0.57 -0.08,0.59 -0.07,0.6 -0.06,0.62 -0.06,0.63 -0.05,0.65 -0.04,0.67 -0.03,0.68 -0.03,0.69 -0.02,0.71 -0.01,0.72 v 0.74 0.75 l 0.01,0.94 0.02,0.92 0.03,0.9 0.04,0.88 0.05,0.86 0.06,0.84 0.06,0.81 0.07,0.79 0.08,0.77 0.09,0.75 0.1,0.73 0.11,0.7 0.11,0.68 0.12,0.66 0.13,0.64 0.14,0.61 0.14,0.59 0.15,0.57 0.16,0.55 0.16,0.52 0.17,0.5 0.17,0.47 0.18,0.45 0.18,0.42 0.18,0.4 0.19,0.38 0.19,0.35 0.19,0.33 0.19,0.3 0.19,0.28 0.19,0.26 0.16,0.21 0.45,0.5 0.45,0.45 0.46,0.41 0.47,0.37 0.48,0.33 0.49,0.3 0.5,0.27 0.52,0.24 0.54,0.21 0.49,0.16 0.15,-0.04 0.51,-0.18 0.47,-0.19 0.44,-0.21 0.42,-0.23 0.4,-0.25 0.38,-0.27 0.36,-0.3 0.35,-0.33 0.37,-0.39 0.39,-0.45 0.38,-0.49 0.38,-0.52 0.37,-0.56 0.37,-0.6 0.36,-0.64 0.35,-0.68 0.34,-0.72 0.33,-0.76 0.31,-0.79 0.3,-0.83 0.28,-0.87 0.27,-0.91 0.25,-0.95 0.24,-0.98 1.38,-6.35 8.19,2.4 0.54,-2.46 36.41,10.68 -1.08,4.61 -0.18,0.71 -0.18,0.7 -0.19,0.69 -0.19,0.69 -0.2,0.69 -0.21,0.68 -0.21,0.67 -0.22,0.66 -0.23,0.66 -0.23,0.65 -0.24,0.64 -0.25,0.64 -0.26,0.63 -0.26,0.63 -0.27,0.62 -0.27,0.61 -0.28,0.61 -0.29,0.6 -0.3,0.59 -0.3,0.59 -0.31,0.58 -0.32,0.58 -0.33,0.57 -0.33,0.56 -0.34,0.56 -0.35,0.55 -0.36,0.54 -0.36,0.54 -0.37,0.53 -0.38,0.52 -0.4,0.53 -0.77,0.99 -0.81,0.98 -0.84,0.95 -0.87,0.92 -0.89,0.89 -0.92,0.87 -0.95,0.84 -0.98,0.81 -1,0.78 -1.03,0.75 -1.06,0.72 -1.09,0.69 -1.11,0.65 -1.14,0.62 -1.16,0.59 -1.16,0.54 -0.37,0.17 82.72,-0.57 z m 280.9,420.98 4.02,-4.8 c 10.61,18.27 32.62,40.69 16.59,59.91 -0.3,-8.77 3.65,-21.49 -3.29,-33.86 -4.32,-7.71 -11.82,-14.09 -17.32,-21.25 z M 521,560.4 c 2.31,-3.88 4.62,-7.76 6.94,-11.64 11.76,17.18 10.52,26.59 8.84,45.44 -3.26,-11.17 -7.16,-22.99 -15.78,-33.8 z m -15.78,22.16 6.45,-5.96 c 13.37,33.19 13.69,32.46 -5.98,53.92 -3.1,-13.58 1.81,-33.55 -0.47,-47.96 z m -18.98,27.41 -16.92,16.94 c 12.57,14.76 16.9,40.28 17.17,58.46 5.04,-22.58 3.96,-53.46 -0.25,-75.4 z m -34.08,36.39 c 2.24,-2.21 4.48,-4.43 6.71,-6.64 9.32,20.6 11.68,30.87 7.82,51.1 -9.25,-14.09 -13.31,-27.81 -14.53,-44.46 z m -34.9,35.7 20.41,-20.15 c 4.31,17.95 9.07,30.79 17.81,47.67 -15.03,-4.4 -24.12,-11.42 -38.22,-27.52 z m -20.32,24.08 c -2.95,-3.97 5.87,-13.21 10.95,-11.28 10.53,11.59 25.06,20.1 35.52,27.49 4.35,3.07 -10.98,7.44 -15.95,5.11 -11.27,-5.28 -22.83,-10.96 -30.52,-21.32 z m -14.6,10.27 5.94,-3 c 15.45,15.76 25.21,30.35 55.32,27.35 -40.64,14.43 -54.98,-9.06 -61.26,-24.35 z m -18.82,19.92 c 2.78,-2.6 6.67,-5.67 9.44,-8.26 15.23,23.67 18.85,25.63 45.58,30.15 -26.49,9.18 -40.95,5.03 -55.02,-21.89 z m -155.13,-13.85 -27.63,-16.73 -21.03,17.01 c 1.71,1.16 3.37,2.1 4.92,2.74 7.53,3.15 16.03,5.14 24.45,5.31 5.51,0.11 11.49,-1.45 15.64,-4.49 1.44,-1.05 2.68,-2.37 3.65,-3.84 z m -10.72,-30.41 -9.1,7.37 21.97,13.49 c -0.73,-4.82 -3.5,-9.46 -6.5,-13.62 -1.81,-2.51 -3.96,-4.94 -6.37,-7.24 z m -47.11,-15.96 21.13,12.97 8.24,-9.09 c -9.87,-4.62 -20.55,-6.57 -29.37,-3.88 z m -1.03,37.43 15.62,-17.24 -23.82,-14.42 c -6.67,8.35 -0.49,21.72 8.2,31.66 z m -29.73,-137.47 -0.3,-0.4 -9.25,-12.76 -2.28,-3.31 c -2.16,2.45 -4.03,5.48 -6.15,7.6 -2.07,2.07 -3.91,4.46 -4.68,7.08 -0.59,1.99 -0.54,4.4 0.79,6.12 1.3,1.69 4.08,3.9 6.24,3.02 5.14,-2.09 11.07,-4.28 15.63,-7.35 z m 13.67,17.8 -4.42,-5.6 -7.31,-9.63 c -1.35,1.78 -2.65,3.59 -4.06,5 -2.07,2.07 -3.91,4.46 -4.68,7.08 -0.59,1.99 -0.54,4.4 0.79,6.12 1.3,1.69 4.08,3.9 6.24,3.02 4.36,-1.77 9.27,-3.61 13.44,-5.99 z M 524.18,92.34 c -2.9,6 8.05,12.51 15.39,14.5 4.79,1.3 10.8,-2.96 12.69,-6.87 1.62,-3.34 -0.37,-9.03 -4.46,-10.14 -7.55,-2.05 -20.64,-3.65 -23.62,2.51 z m -4.94,4.47 c 5.45,2.61 15.25,11.43 16.33,14.76 1.65,5.11 -16.2,8.2 -20.49,4.32 -5.11,-4.62 -2.35,-22.2 4.16,-19.08 z m 34.58,34.87 1.5,-0.52 c 3.7,-2.1 5.35,-9.53 6.13,-13.77 0.74,-3.99 -0.19,-10.2 -4.78,-11.45 -4.27,-1.16 -9.51,3.66 -10.2,7.38 -1.14,6.19 -1.64,16.29 5.47,18.22 0.68,0.19 1.3,0.22 1.88,0.14 z m -34.75,-6.39 15.78,13.01 10.44,-3.64 c -0.42,-5.99 -4.45,-12.93 -5.01,-18.95 -6.96,3.31 -15.68,4.86 -21.21,9.58 z m -42.97,-16.2 5,4.52 11.71,-4.78 c 0.08,-0.54 0.12,-1.1 0.09,-1.66 -0.84,-15.6 9.36,-25.85 22.69,-34.59 -7.06,-0.99 -14.13,-1.99 -21.19,-2.98 -8.59,11.78 -17.25,23.03 -18.3,37.43 -0.06,0.68 -0.05,1.37 0,2.06 z m -445.03,11.81 53.85,17.36 32.78,-22.24 18.63,3.21 27.91,-28.26 16.51,5.06 20.89,-27.52 19.54,-4.07 37.3,-53.48 19.4,16.84 20.8,-22.34 41.91,33.72 20.81,-10.16 26.39,29.46 17.48,-7.48 37.08,46.18 16.74,-3.49 4.67,4.23 c 0.02,-0.33 0.04,-0.66 0.06,-0.99 0.52,-6.7 0.85,-13.94 4.94,-19.71 5.92,-8.35 16,-14.05 24,-21.08 11.76,2.58 23.15,7.08 35.28,7.75 5.03,0.28 8.85,-5.07 13.89,-5.02 6.73,0.08 17.83,-0.13 19.12,5.4 1.43,6.13 -14.78,8 -14.53,14.25 0.22,5.41 11.23,5.68 15.5,9.73 4.05,3.85 7.24,8.53 8.93,13.47 1.42,4.14 0.81,8.65 0.13,12.91 -0.62,3.86 -0.89,7.97 -2.11,11.75 l 16.59,-5.78 0.57,46.65 0.1,5.72 0.12,5.71 0.14,5.7 0.16,5.69 0.18,5.68 0.19,5.68 0.2,5.67 0.21,5.67 0.22,5.67 0.22,5.67 0.22,5.67 0.21,5.68 0.21,5.68 0.2,5.69 0.19,5.7 0.17,5.72 0.15,5.73 0.13,5.74 0.11,5.76 0.08,5.78 0.05,5.79 0.02,5.81 -0.02,5.84 -0.06,5.86 -0.1,5.88 -0.14,5.91 -0.19,5.94 -0.24,5.97 -0.29,6 -0.35,6.03 -0.42,6.25 -1.51,16.05 -2.16,15.92 -2.78,15.62 -3.38,15.33 -3.96,15.04 -4.51,14.76 -5.03,14.49 -5.54,14.23 -6.02,13.98 -5.53,11.74 c 1.64,7.25 1.36,21.8 4.34,28.27 5.85,12.69 16,23.82 21.61,36.59 3.09,7.04 4.4,14.73 4.2,22.24 -0.13,5.05 -1.91,10.26 -5.17,14.51 -4.82,6.29 -14.56,9.53 -18.43,16.27 -2.69,4.68 1.76,10.57 0.15,15.59 -1.72,5.38 -5.36,10.41 -9.82,14.54 -3.26,3.02 -10.68,2.45 -12.55,6.21 -7.05,14.11 -4.77,30.9 -12.84,44.62 -7.36,12.51 -21.08,21.59 -32.22,31.95 -15.19,14.14 -28.19,30.54 -46.73,41.52 -11.89,7.04 -27.16,10.76 -41.72,10.86 -10.2,0.07 -22.57,-3.14 -27.99,-10.38 l -17.62,-23.57 -4.62,4.92 -36.09,38.68 -36.15,-37.51 -10.31,-10.62 -10.46,-10.75 -10.58,-10.87 -10.67,-11 -10.73,-11.12 -10.76,-11.25 -1.67,-1.76 -8.52,6.89 c 3.4,3.12 6.43,6.47 8.92,9.92 4.23,5.85 8.08,12.49 8.26,19.33 0.13,5.11 -2.8,10.67 -7.39,14.03 -5.12,3.76 -12.51,5.68 -19.31,5.55 -10.39,-0.21 -20.89,-2.67 -30.19,-6.56 -2.28,-0.95 -4.76,-2.4 -7.3,-4.25 l -3.67,2.97 -15.5,-0.92 9.6,-10.59 c -13.92,-14.85 -24.06,-37.37 -4.7,-46.6 12.27,-5.85 28.49,-2.98 42.94,4.4 l 10.52,-11.61 -3.47,-3.73 -10.64,-11.66 -10.54,-11.81 -10.41,-11.96 -10.24,-12.11 -10.04,-12.27 -1.65,-2.09 c -16.14,15.77 -34.25,34.38 -51.09,44.99 -1.75,1.11 -4.53,1.03 -6.57,0.35 -4.24,-1.42 -8.26,-3.57 -11.39,-6.35 -1.88,-1.67 -2.75,-4.13 -2.99,-6.41 -0.19,-1.9 0.59,-3.9 1.77,-5.53 3.93,-5.43 8.99,-10.23 13.37,-15.41 3.09,-3.65 6.96,-6.96 9.03,-11.09 0.94,-1.89 0.45,-4.22 -0.43,-6.12 -1.07,-2.33 -3.25,-4.19 -5.18,-6.09 -2.51,-2.47 -6.44,-4.05 -8.11,-6.99 -1.05,-1.85 -0.73,-4.45 0.67,-6.13 2.38,-2.87 7.78,-3.45 9.8,-6.5 1.48,-2.23 -0.57,-5.1 -0.44,-7.66 0.18,-3.7 -0.62,-7.73 1.35,-11.04 1.05,-1.76 4.2,-2.21 6.56,-2.19 1.58,0.01 3.52,0.1 5.6,0.24 l -6.4,-9.82 -8.16,-13.31 -7.72,-13.5 -7.25,-13.7 -6.74,-13.9 -6.2,-14.1 L 51.08,454 46.09,439.49 41.76,424.77 38.12,409.84 35.22,394.7 33.1,379.36 31.79,363.82 31.34,348.41 Z"
   id="path50"
   style="fill:#000000" />
	
	
	
	
	
</g>
</svg>
